<svg width="60" height="60" viewBox="0 0 60 60" fill="none" xmlns="http://www.w3.org/2000/svg">
<path d="M22.4701 41L18.4201 35.15H18.1801H13.9501V41H9.0901V20H18.1801C20.0401 20 21.6501 20.31 23.0101 20.93C24.3901 21.55 25.4501 22.43 26.1901 23.57C26.9301 24.71 27.3001 26.06 27.3001 27.62C27.3001 29.18 26.9201 30.53 26.1601 31.67C25.4201 32.79 24.3601 33.65 22.9801 34.25L27.6901 41H22.4701ZM22.3801 27.62C22.3801 26.44 22.0001 25.54 21.2401 24.92C20.4801 24.28 19.3701 23.96 17.9101 23.96H13.9501V31.28H17.9101C19.3701 31.28 20.4801 30.96 21.2401 30.32C22.0001 29.68 22.3801 28.78 22.3801 27.62Z" fill="#5D5FEF"/>
<path d="M42.9601 41.36C41.5401 41.36 40.2301 41.1 39.0301 40.58C37.8501 40.04 36.8801 39.28 36.1201 38.3L38.8201 35.06C39.9601 36.6 41.2601 37.37 42.7201 37.37C44.7001 37.37 45.6901 36.21 45.6901 33.89V23.9H38.3101V20H50.5201V33.62C50.5201 36.2 49.8801 38.14 48.6001 39.44C47.3201 40.72 45.4401 41.36 42.9601 41.36Z" fill="#5D5FEF"/>
<circle cx="30" cy="30" r="29" stroke="#5D5FEF" stroke-width="2"/>
<line x1="31" y1="4.37114e-08" x2="31" y2="60" stroke="#5D5FEF" stroke-width="2"/>
</svg>
