<svg width="19" height="20" viewBox="0 0 19 20" fill="none" xmlns="http://www.w3.org/2000/svg">
<path fill-rule="evenodd" clip-rule="evenodd" d="M15.403 3.57501C14.5714 2.7379 13.5819 2.07413 12.4919 1.62216C11.4019 1.1702 10.233 0.939016 9.053 0.942015C4.105 0.942015 0.077 4.96902 0.075 9.91901C0.075 11.501 0.488 13.045 1.273 14.407L0 19.058L4.759 17.809C6.07539 18.5256 7.5502 18.9014 9.049 18.902H9.053C14 18.902 18.028 14.875 18.03 9.92501C18.0334 8.7455 17.803 7.57701 17.3521 6.48707C16.9012 5.39714 16.2387 4.40739 15.403 3.57501ZM9.053 17.387H9.05C7.71352 17.3872 6.40163 17.0276 5.252 16.346L4.98 16.184L2.156 16.925L2.909 14.172L2.732 13.89C1.98479 12.7004 1.58923 11.3238 1.591 9.91901C1.593 5.80502 4.94 2.45801 9.056 2.45801C10.0363 2.45584 11.0072 2.6481 11.9127 3.02367C12.8181 3.39924 13.6401 3.95066 14.331 4.64601C15.0256 5.33806 15.5762 6.16091 15.9509 7.06701C16.3256 7.97312 16.517 8.9445 16.514 9.92501C16.512 14.039 13.165 17.387 9.053 17.387ZM13.146 11.798C12.921 11.685 11.819 11.143 11.613 11.068C11.408 10.993 11.259 10.956 11.109 11.18C10.959 11.404 10.529 11.909 10.398 12.059C10.267 12.209 10.136 12.227 9.912 12.115C9.688 12.003 8.965 11.766 8.108 11.002C7.441 10.407 6.991 9.67301 6.86 9.44801C6.729 9.22301 6.846 9.10202 6.959 8.99002C7.06 8.89002 7.183 8.72801 7.295 8.59701C7.407 8.46601 7.444 8.37301 7.519 8.22301C7.594 8.07301 7.557 7.94201 7.5 7.83001C7.444 7.71701 6.995 6.61301 6.808 6.16401C6.627 5.72901 6.442 5.78701 6.304 5.78101C6.16108 5.77517 6.01804 5.7725 5.875 5.77301C5.76126 5.77591 5.64934 5.80228 5.54626 5.85046C5.44318 5.89865 5.35117 5.9676 5.276 6.05301C5.07 6.27801 4.491 6.82001 4.491 7.92402C4.491 9.02802 5.295 10.095 5.407 10.245C5.519 10.395 6.989 12.66 9.239 13.632C9.775 13.863 10.193 14.001 10.518 14.105C11.055 14.276 11.544 14.251 11.931 14.194C12.362 14.13 13.258 13.652 13.445 13.128C13.632 12.604 13.632 12.155 13.576 12.061C13.52 11.967 13.369 11.91 13.146 11.798Z" fill="white"/>
</svg>
